<svg width="36" height="36" viewBox="0 0 36 36" fill="none" xmlns="http://www.w3.org/2000/svg">
<path d="M23.244 17.88C21.2593 17.88 19.668 19.4713 19.668 21.456C19.668 22.4044 20.0448 23.314 20.7154 23.9846C21.386 24.6552 22.2956 25.032 23.244 25.032C24.1924 25.032 25.102 24.6552 25.7726 23.9846C26.4432 23.314 26.82 22.4044 26.82 21.456C26.82 19.4713 25.2108 17.88 23.244 17.88ZM17.88 32.184C14.0863 32.184 10.4481 30.677 7.76554 27.9945C5.08302 25.3119 3.576 21.6737 3.576 17.88C3.576 14.0863 5.08302 10.4481 7.76554 7.76554C10.4481 5.08302 14.0863 3.576 17.88 3.576C21.6737 3.576 25.3119 5.08302 27.9945 7.76554C30.677 10.4481 32.184 14.0863 32.184 17.88C32.184 21.6737 30.677 25.3119 27.9945 27.9945C25.3119 30.677 21.6737 32.184 17.88 32.184ZM17.88 0C15.532 0 13.2069 0.46248 11.0376 1.36103C8.86832 2.25959 6.89724 3.57662 5.23693 5.23693C1.88378 8.59008 0 13.1379 0 17.88C0 22.6221 1.88378 27.1699 5.23693 30.5231C6.89724 32.1834 8.86832 33.5004 11.0376 34.399C13.2069 35.2975 15.532 35.76 17.88 35.76C22.6221 35.76 27.1699 33.8762 30.5231 30.5231C33.8762 27.1699 35.76 22.6221 35.76 17.88C35.76 15.532 35.2975 13.2069 34.399 11.0376C33.5004 8.86832 32.1834 6.89724 30.5231 5.23693C28.8628 3.57662 26.8917 2.25959 24.7224 1.36103C22.5531 0.46248 20.228 0 17.88 0ZM21.456 12.516C21.456 10.5313 19.8468 8.94 17.88 8.94C15.8953 8.94 14.304 10.5313 14.304 12.516C14.304 13.4644 14.6808 14.374 15.3514 15.0446C16.022 15.7152 16.9316 16.092 17.88 16.092C18.8284 16.092 19.738 15.7152 20.4086 15.0446C21.0792 14.374 21.456 13.4644 21.456 12.516ZM12.516 17.88C11.5676 17.88 10.658 18.2568 9.98739 18.9274C9.31676 19.598 8.94 20.5076 8.94 21.456C8.94 22.4044 9.31676 23.314 9.98739 23.9846C10.658 24.6552 11.5676 25.032 12.516 25.032C13.4644 25.032 14.374 24.6552 15.0446 23.9846C15.7152 23.314 16.092 22.4044 16.092 21.456C16.092 19.4713 14.4828 17.88 12.516 17.88Z" fill="black"/>
</svg>
