<svg width="36" height="36" viewBox="0 0 36 36" fill="none" xmlns="http://www.w3.org/2000/svg">
<path d="M32.2867 3.97333V3.47333H31.7867H23.84H23.34V3.97333V7.94667V8.44667H23.84H31.7867H32.2867V7.94667V3.97333ZM12.42 3.97333V3.47333H11.92H3.97333H3.47333V3.97333V15.8933V16.3933H3.97333H11.92H12.42V15.8933V3.97333ZM32.2867 19.8667V19.3667H31.7867H23.84H23.34V19.8667V31.7867V32.2867H23.84H31.7867H32.2867V31.7867V19.8667ZM12.42 27.8133V27.3133H11.92H3.97333H3.47333V27.8133V31.7867V32.2867H3.97333H11.92H12.42V31.7867V27.8133ZM20.3667 11.42V0.5H35.26V11.42H20.3667ZM15.3933 0.5V19.3667H0.5V0.5H15.3933ZM20.3667 35.26V16.3933H35.26V35.26H20.3667ZM0.5 35.26V24.34H15.3933V35.26H0.5Z" fill="black" stroke="black"/>
</svg>
