<svg width="27" height="22" viewBox="0 0 27 22" fill="none" xmlns="http://www.w3.org/2000/svg">
<path d="M11.41 0.152008C10.9094 0.152008 10.516 0.545368 10.516 1.04601V1.45725C9.30016 0.885088 8.0128 0.563248 6.70756 0.563248C4.74076 0.563248 2.75608 1.20693 1.129 2.51217C0.717762 2.85189 0.682002 3.47769 1.05748 3.85317L4.18648 6.98217H6.70756L6.51088 9.32445C7.61944 10.433 9.04984 10.9694 10.4981 10.9694H10.516V14.456H7.834C7.33336 14.456 6.94 14.8494 6.94 15.35V18.926C6.94 20.41 8.13796 21.608 9.622 21.608H23.032C24.9988 21.608 26.608 19.9988 26.608 18.032V1.04601C26.608 0.545368 26.2146 0.152008 25.714 0.152008H11.41ZM10.4981 9.18141C9.72928 9.18141 8.9962 8.96685 8.3704 8.53773L8.6386 5.19417H4.91956L3.07792 3.35253C4.1686 2.70885 5.4202 2.36913 6.70756 2.36913C8.62072 2.36913 10.4087 3.12009 11.7676 4.46109L14.2887 6.98217L13.2159 8.05497C12.4828 8.77017 11.5173 9.18141 10.4981 9.18141ZM24.82 18.032C24.82 19.1227 23.8545 19.9809 22.728 19.8021C21.8519 19.6591 21.244 18.8187 21.244 17.9247V15.35C21.244 14.8494 20.8506 14.456 20.35 14.456H12.304V10.6476C13.0907 10.3794 13.8417 9.95025 14.4854 9.32445L15.5582 8.25165L19.9745 12.668H21.244V11.3985L13.0192 3.19161C12.8046 2.95917 12.5543 2.79825 12.304 2.60157V1.94001H24.82V18.032Z" fill="black"/>
</svg>
