<svg width="36" height="39" viewBox="0 0 36 39" fill="none" xmlns="http://www.w3.org/2000/svg">
<path d="M19.9273 0.81459C18.7785 -0.27153 16.9815 -0.27153 15.8327 0.81459L1.39905 14.461C0.506004 15.3054 0 16.4802 0 17.7091V34.3055C0 36.7741 2.00128 38.7755 4.47 38.7755H8.94C11.4087 38.7755 13.41 36.7741 13.41 34.3055V26.8555C13.41 26.0327 14.0771 25.3656 14.9 25.3656H20.86C21.6829 25.3656 22.35 26.0327 22.35 26.8555V34.3055C22.35 36.7741 24.3514 38.7755 26.82 38.7755H31.29C33.7586 38.7755 35.76 36.7741 35.76 34.3055V17.7091C35.76 16.4802 35.254 15.3054 34.3609 14.461L19.9273 0.81459Z" fill="black"/>
</svg>
