<svg width="40" height="40" viewBox="0 0 40 40" fill="none" xmlns="http://www.w3.org/2000/svg">
<path d="M9.94667 29.8133V21.8667H5.97333C4.91954 21.8667 3.90891 21.448 3.16376 20.7029C2.41862 19.9578 2 18.9471 2 17.8933V5.97333C2 4.91954 2.41862 3.90891 3.16376 3.16376C3.90891 2.41862 4.91954 2 5.97333 2H25.84C26.8938 2 27.9044 2.41862 28.6496 3.16376C29.3947 3.90891 29.8133 4.91954 29.8133 5.97333V9.94667M9.94667 29.8133L17.8933 21.8667H25.84C26.8938 21.8667 27.9044 21.448 28.6496 20.7029C29.3947 19.9578 29.8133 18.9471 29.8133 17.8933V9.94667M9.94667 29.8133H21.8667L29.8133 37.76V29.8133H33.7867C34.8405 29.8133 35.8511 29.3947 36.5962 28.6496C37.3414 27.9044 37.76 26.8938 37.76 25.84V13.92C37.76 12.8662 37.3414 11.8556 36.5962 11.1104C35.8511 10.3653 34.8405 9.94667 33.7867 9.94667H29.8133M9.94667 29.8133L17.3112 22.4488C17.6837 22.0762 18.189 21.8668 18.7158 21.8667" stroke="black" stroke-width="3.97333" stroke-linecap="round" stroke-linejoin="round"/>
</svg>
