<svg width="39" height="41" viewBox="0 0 39 41" fill="none" xmlns="http://www.w3.org/2000/svg">
<path d="M30.0051 18.6547C31.0819 28.6022 35.3095 31.6084 35.3095 31.6084H2C2 31.6084 7.55158 27.6607 7.55158 13.8434C7.55158 10.7023 8.72137 7.68991 10.8036 5.46885C12.8859 3.24777 15.71 2 18.6547 2C19.2789 2 19.8977 2.05607 20.5053 2.1656" stroke="black" stroke-width="2.77579" stroke-linecap="round" stroke-linejoin="round"/>
<path d="M31.6084 13.1032C34.6746 13.1032 37.16 10.6176 37.16 7.55158C37.16 4.48553 34.6746 2 31.6084 2C28.5423 2 26.0568 4.48553 26.0568 7.55158C26.0568 10.6176 28.5423 13.1032 31.6084 13.1032Z" stroke="black" stroke-width="2.77579" stroke-linecap="round" stroke-linejoin="round"/>
<path d="M21.8561 37.16C21.5308 37.7209 21.0639 38.1865 20.5019 38.51C19.9401 38.8336 19.3032 39.0041 18.6547 39.0041C18.0063 39.0041 17.3694 38.8336 16.8075 38.51C16.2457 38.1865 15.7786 37.7209 15.4533 37.16" stroke="black" stroke-width="2.77579" stroke-linecap="round" stroke-linejoin="round"/>
</svg>
