<svg width="36" height="30" viewBox="0 0 36 30" fill="none" xmlns="http://www.w3.org/2000/svg">
<path d="M12.072 0C15.1026 0 17.5594 2.45678 17.5594 5.48734C17.5594 8.5179 15.1026 10.9746 12.072 10.9746C9.04154 10.9746 6.58476 8.5179 6.58476 5.48734C6.58476 2.45678 9.04154 0 12.072 0ZM6.58476 18.4377C5.85309 18.8035 4.38984 21.73 4.38984 21.73C4.38984 21.73 3.65817 22.8274 3.29234 27.2173L0 26.1199L1.09742 20.6326C1.09742 20.6326 3.29234 12.9504 7.68218 12.9504H16.4618C20.8517 12.9504 23.0466 20.6326 23.0466 20.6326L24.1441 26.12L20.8517 27.2174C20.4859 22.8275 19.7544 21.73 19.7544 21.73C19.7544 21.73 18.291 18.8035 17.5594 18.4377L18.0028 28.4045C16.3345 29.0552 14.5193 29.4123 12.6208 29.4123C10.3065 29.4123 8.11613 28.8816 6.16475 27.9355L6.58476 18.4377ZM19.9799 1.57801H35.76V4.20802H19.9799V1.57801ZM19.9799 6.83803H35.76V9.46804H19.9799V6.83803ZM21.7333 12.0981H35.76V14.7281H21.7333V12.0981ZM24.3633 17.3581H35.76V19.9881H24.3633V17.3581ZM26.1166 22.6181H35.76V25.2481H26.1166V22.6181Z" fill="black"/>
</svg>
