<svg width="36" height="36" viewBox="0 0 36 36" fill="none" xmlns="http://www.w3.org/2000/svg">
<path d="M33.9586 28.1071L28.0192 22.1677L23.4508 20.2803C24.9719 18.1171 25.7869 15.5364 25.7839 12.892C25.7839 5.78329 20.0006 0 12.892 0C5.78329 0 0 5.78329 0 12.892C0 20.0006 5.78329 25.7839 12.892 25.7839C15.5595 25.787 18.1615 24.9579 20.3355 23.4123L22.2181 27.9685L28.1572 33.9082C28.5381 34.2891 28.9903 34.5912 29.488 34.7974C29.9857 35.0036 30.5191 35.1097 31.0578 35.1097C31.5965 35.1097 32.1299 35.0036 32.6276 34.7975C33.1253 34.5914 33.5775 34.2892 33.9584 33.9083C34.3394 33.5274 34.6415 33.0752 34.8477 32.5776C35.0539 32.0799 35.16 31.5465 35.16 31.0078C35.16 30.4691 35.0539 29.9357 34.8478 29.438C34.6417 28.9403 34.3395 28.4881 33.9586 28.1071ZM2.34399 12.892C2.34399 7.07593 7.07593 2.34399 12.892 2.34399C18.708 2.34399 23.4399 7.07593 23.4399 12.892C23.4399 18.708 18.708 23.4399 12.892 23.4399C7.07593 23.4399 2.34399 18.708 2.34399 12.892ZM32.3011 32.2507C31.9711 32.5799 31.524 32.7648 31.0579 32.7648C30.5918 32.7648 30.1448 32.5799 29.8148 32.2507L24.2059 26.6418L22.4557 22.4054L26.6922 24.1557L32.3012 29.7646C32.6304 30.0945 32.8152 30.5416 32.8152 31.0077C32.8152 31.4738 32.6303 31.9208 32.3011 32.2507Z" fill="black"/>
</svg>
