<svg width="31" height="31" viewBox="0 0 31 31" fill="none" xmlns="http://www.w3.org/2000/svg">
<path d="M30.0688 13.1188L28.9115 9.42699C28.7865 9.00032 28.5769 8.60318 28.2952 8.25927C28.0134 7.91536 27.6652 7.63172 27.2715 7.42528C26.8777 7.21883 26.4464 7.0938 26.0033 7.05764C25.5602 7.02149 25.1143 7.07495 24.6923 7.21484L24.1942 7.37599C23.804 7.50498 23.3884 7.53771 22.9828 7.47138C22.5772 7.40506 22.1937 7.24165 21.8649 6.99509L21.7037 6.87789C21.3828 6.63232 21.1242 6.31478 20.9486 5.95088C20.773 5.58699 20.6854 5.18692 20.6929 4.78294V4.37274C20.7 3.45276 20.3417 2.56756 19.6967 1.91154C19.3898 1.60163 19.0248 1.35537 18.6226 1.18693C18.2203 1.01848 17.7887 0.931168 17.3527 0.929993H13.6169C12.7206 0.941575 11.8651 1.30678 11.2368 1.94609C10.6084 2.5854 10.2581 3.44705 10.2621 4.34344V4.69504C10.2606 5.12029 10.1638 5.5398 9.97874 5.92266C9.79365 6.30552 9.525 6.64196 9.1926 6.90719L9.00215 7.05369C8.63494 7.33149 8.20544 7.5154 7.75098 7.58944C7.29652 7.66348 6.83085 7.62541 6.39445 7.47854C5.99365 7.33984 5.56887 7.28391 5.14583 7.31413C4.72278 7.34435 4.31027 7.46009 3.93325 7.65434C3.54071 7.84917 3.19246 8.12269 2.91018 8.4579C2.62791 8.79311 2.41763 9.18282 2.29245 9.60279L1.09115 13.4118C0.81257 14.2706 0.884013 15.2046 1.28997 16.011C1.69592 16.8174 2.4036 17.4311 3.25935 17.7189H3.49375C3.88851 17.8668 4.24281 18.1058 4.52791 18.4163C4.813 18.7269 5.02084 19.1003 5.13455 19.5062L5.22245 19.7406C5.38576 20.1891 5.44038 20.6699 5.3818 21.1436C5.32323 21.6173 5.15314 22.0703 4.8855 22.4655C4.34377 23.2033 4.11526 24.1251 4.2497 25.0304C4.38413 25.9358 4.87063 26.7515 5.60335 27.3L8.6359 29.6C9.21011 30.0175 9.90376 30.2385 10.6137 30.23C10.8036 30.2486 10.995 30.2486 11.185 30.23C11.6247 30.1449 12.0424 29.9711 12.4126 29.7192C12.7829 29.4673 13.0979 29.1427 13.3386 28.765L13.6755 28.2815C13.9119 27.9425 14.2246 27.6638 14.5885 27.4678C14.9524 27.2719 15.3573 27.1642 15.7705 27.1535C16.2034 27.1428 16.6321 27.242 17.0164 27.4419C17.4006 27.6417 17.728 27.9356 17.968 28.2962L18.1438 28.5452C18.3935 28.917 18.7168 29.2336 19.0935 29.4758C19.4703 29.7179 19.8927 29.8803 20.3346 29.953C20.7765 30.0258 21.2286 30.0073 21.6631 29.8987C22.0976 29.7901 22.5053 29.5938 22.861 29.3217L25.835 27.0949C26.5382 26.5488 27.0058 25.7544 27.142 24.8745C27.2782 23.9947 27.0726 23.0961 26.5675 22.3629L26.1866 21.8062C25.9575 21.4523 25.8076 21.0532 25.7469 20.636C25.6862 20.2188 25.7163 19.7935 25.835 19.389C25.956 18.956 26.1807 18.559 26.4895 18.2323C26.7984 17.9056 27.1821 17.659 27.6076 17.5138L27.9006 17.4112C28.7485 17.1171 29.4487 16.5047 29.8533 15.7037C30.2579 14.9027 30.3352 13.9758 30.0688 13.1188ZM15.58 20.7075C14.5659 20.7075 13.5745 20.4068 12.7313 19.8434C11.8881 19.2799 11.2309 18.4791 10.8428 17.5422C10.4547 16.6053 10.3532 15.5743 10.551 14.5797C10.7489 13.585 11.2372 12.6714 11.9543 11.9543C12.6714 11.2372 13.585 10.7489 14.5797 10.551C15.5743 10.3532 16.6053 10.4547 17.5422 10.8428C18.4791 11.2309 19.2799 11.8881 19.8434 12.7313C20.4068 13.5745 20.7075 14.5659 20.7075 15.58C20.7075 16.9399 20.1673 18.2441 19.2057 19.2057C18.2441 20.1673 16.9399 20.7075 15.58 20.7075Z" fill="black"/>
</svg>
