<svg width="36" height="32" viewBox="0 0 36 32" fill="none" xmlns="http://www.w3.org/2000/svg">
<path fill-rule="evenodd" clip-rule="evenodd" d="M12.7455 0C5.70638 0 0 5.70638 0 12.7455C0 28.5675 21.096 31.644 21.096 31.644V25.491H22.4145C29.4536 25.491 35.16 19.7846 35.16 12.7455C35.16 5.70638 29.4536 0 22.4145 0H12.7455ZM23.1674 5.9198C24.572 6.98014 25.491 8.59732 25.491 10.6764C25.491 13.2085 23.8858 14.7947 22.2961 15.6708C21.354 16.1899 20.3259 16.5215 19.3965 16.7189C19.3869 17.6816 18.6035 18.459 17.6386 18.459C16.6677 18.459 15.8806 17.6719 15.8806 16.701V15.1948C15.8806 14.266 16.6032 13.4974 17.5302 13.4402C18.3689 13.3883 19.6199 13.131 20.5991 12.5914C21.5488 12.0681 21.975 11.4579 21.975 10.6764C21.975 9.74327 21.6085 9.14837 21.0491 8.72601C20.43 8.25873 19.4888 7.95319 18.3871 7.91504C17.293 7.87707 16.2031 8.11018 15.3755 8.53447C14.5439 8.96061 14.1347 9.48617 14.0104 9.97779C13.7723 10.9191 12.8163 11.4891 11.8749 11.2511C10.9337 11.0131 10.3636 10.057 10.6017 9.11576C11.0487 7.34826 12.3535 6.13243 13.7716 5.4055C15.1937 4.67663 16.8891 4.34498 18.5089 4.40115C20.1211 4.45706 21.8225 4.90456 23.1674 5.9198ZM15.822 21.096C15.822 20.1251 16.6091 19.338 17.58 19.338C18.5509 19.338 19.338 20.1251 19.338 21.096C19.338 22.0669 18.5509 22.854 17.58 22.854C16.6091 22.854 15.822 22.0669 15.822 21.096Z" fill="black"/>
</svg>
