<svg width="36" height="44" viewBox="0 0 36 44" fill="none" xmlns="http://www.w3.org/2000/svg">
<path d="M0 5.10857C0 2.28718 2.28718 0 5.10857 0H25.5429C28.3643 0 30.6514 2.28718 30.6514 5.10857V30.3526L24.2793 36.7886L21.893 34.3549C20.4118 32.8438 17.986 32.8198 16.4749 34.3013C14.9639 35.7825 14.9398 38.2086 16.4213 39.7194L17.5479 40.8686H5.10857C2.28718 40.8686 0 38.5815 0 35.76V5.10857ZM12.7714 19.1572C12.7714 19.8625 13.3432 20.4343 14.0486 20.4343H24.2657C24.971 20.4343 25.5429 19.8625 25.5429 19.1572C25.5429 18.4518 24.971 17.88 24.2657 17.88H14.0486C13.3432 17.88 12.7714 18.4518 12.7714 19.1572ZM14.0486 7.66286C13.3432 7.66286 12.7714 8.23466 12.7714 8.94C12.7714 9.64534 13.3432 10.2171 14.0486 10.2171H24.2657C24.971 10.2171 25.5429 9.64534 25.5429 8.94C25.5429 8.23466 24.971 7.66286 24.2657 7.66286H14.0486ZM12.7714 29.3743C12.7714 30.0795 13.3432 30.6514 14.0486 30.6514H24.2657C24.971 30.6514 25.5429 30.0795 25.5429 29.3743C25.5429 28.6691 24.971 28.0972 24.2657 28.0972H14.0486C13.3432 28.0972 12.7714 28.6691 12.7714 29.3743ZM7.66286 21.7114C9.07354 21.7114 10.2171 20.5679 10.2171 19.1572C10.2171 17.7465 9.07354 16.6029 7.66286 16.6029C6.25218 16.6029 5.10857 17.7465 5.10857 19.1572C5.10857 20.5679 6.25218 21.7114 7.66286 21.7114ZM10.2171 8.94C10.2171 7.52932 9.07354 6.38572 7.66286 6.38572C6.25218 6.38572 5.10857 7.52932 5.10857 8.94C5.10857 10.3507 6.25218 11.4943 7.66286 11.4943C9.07354 11.4943 10.2171 10.3507 10.2171 8.94ZM7.66286 31.9286C9.07354 31.9286 10.2171 30.785 10.2171 29.3743C10.2171 27.9636 9.07354 26.82 7.66286 26.82C6.25218 26.82 5.10857 27.9636 5.10857 29.3743C5.10857 30.785 6.25218 31.9286 7.66286 31.9286Z" fill="black"/>
<path d="M35.3904 32.8272C35.8867 32.326 35.8826 31.5173 35.3815 31.021C34.8803 30.5247 34.0716 30.5288 33.5753 31.03L24.2703 40.4282L20.069 36.1431C19.5753 35.6394 18.7666 35.6313 18.2631 36.1253C17.7594 36.619 17.7513 37.4277 18.2453 37.9311L23.1722 42.957C23.771 43.5677 24.7538 43.57 25.3556 42.9623L35.3904 32.8272Z" fill="black"/>
</svg>
